# This file is brought to you by Roblox Corporation
# Generated by Roblox Studio

mtllib Platform.mtl

g Part1

v -8 0.500023 7 
v -8 0.500023 -9 
v -8 -0.499977 7 
v -8 -0.499977 -9 
v -7 0.500023 -9 
v -8 0.500023 -9 
v -7 0.500023 7 
v -8 0.500023 7 
v -8 0.500023 -9 
v -7 0.500023 -9 
v -8 -0.499977 -9 
v -7 -0.499977 -9 
v -7 0.500023 -9 
v -7 0.500023 7 
v -7 -0.499977 -9 
v -7 -0.499977 7 
v -7 -0.499977 7 
v -8 -0.499977 7 
v -7 -0.499977 -9 
v -8 -0.499977 -9 
v -7 0.500023 7 
v -8 0.500023 7 
v -7 -0.499977 7 
v -8 -0.499977 7 

vn -1 0 0 
vn -1 0 0 
vn -1 0 0 
vn -1 0 0 
vn 0 1 0 
vn 0 1 0 
vn 0 1 0 
vn 0 1 0 
vn 0 0 -1 
vn 0 0 -1 
vn 0 0 -1 
vn 0 0 -1 
vn 1 0 0 
vn 1 0 0 
vn 1 0 0 
vn 1 0 0 
vn 0 -1 0 
vn 0 -1 0 
vn 0 -1 0 
vn 0 -1 0 
vn 0 0 1 
vn 0 0 1 
vn 0 0 1 
vn 0 0 1 

vt 2.68642 1.6446 
vt 0.686419 1.6446 
vt 2.68642 1.5196 
vt 0.686419 1.5196 
vt 0.811419 1.6446 
vt 0.686419 1.6446 
vt 0.811419 -0.3554 
vt 0.686419 -0.3554 
vt 0.811419 1.6446 
vt 0.686419 1.6446 
vt 0.811419 1.5196 
vt 0.686419 1.5196 
vt 2.68642 1.6446 
vt 0.686419 1.6446 
vt 2.68642 1.5196 
vt 0.686419 1.5196 
vt 0.811419 1.6446 
vt 0.686419 1.6446 
vt 0.811419 -0.3554 
vt 0.686419 -0.3554 
vt 0.811419 1.6446 
vt 0.686419 1.6446 
vt 0.811419 1.5196 
vt 0.686419 1.5196 

usemtl Part1Mtl

f 1/1/1 2/2/2 3/3/3 
f 3/3/3 2/2/2 4/4/4 
f 5/5/5 6/6/6 7/7/7 
f 7/7/7 6/6/6 8/8/8 
f 9/9/9 10/10/10 11/11/11 
f 11/11/11 10/10/10 12/12/12 
f 13/13/13 14/14/14 15/15/15 
f 15/15/15 14/14/14 16/16/16 
f 17/17/17 18/18/18 19/19/19 
f 19/19/19 18/18/18 20/20/20 
f 21/21/21 22/22/22 23/23/23 
f 23/23/23 22/22/22 24/24/24 

g Part2

v 9 0.500017 8 
v -8 0.500017 8 
v 9 -0.499983 8 
v -8 -0.499983 8 
v -8 0.500017 7 
v -8 0.500017 8 
v 9 0.500017 7 
v 9 0.500017 8 
v -8 0.500017 8 
v -8 0.500017 7 
v -8 -0.499983 8 
v -8 -0.499983 7 
v -8 0.500017 7 
v 9 0.500017 7 
v -8 -0.499983 7 
v 9 -0.499983 7 
v 9 -0.499983 7 
v 9 -0.499983 8 
v -8 -0.499983 7 
v -8 -0.499983 8 
v 9 0.500017 7 
v 9 0.500017 8 
v 9 -0.499983 7 
v 9 -0.499983 8 

vn 0 0 1 
vn 0 0 1 
vn 0 0 1 
vn 0 0 1 
vn 0 1 0 
vn 0 1 0 
vn 0 1 0 
vn 0 1 0 
vn -1 0 0 
vn -1 0 0 
vn -1 0 0 
vn -1 0 0 
vn 0 0 -1 
vn 0 0 -1 
vn 0 0 -1 
vn 0 0 -1 
vn 0 -1 0 
vn 0 -1 0 
vn 0 -1 0 
vn 0 -1 0 
vn 1 0 0 
vn 1 0 0 
vn 1 0 0 
vn 1 0 0 

vt 2.96745 2.06114 
vt 0.84245 2.06114 
vt 2.96745 1.93614 
vt 0.84245 1.93614 
vt 0.96745 2.06114 
vt 0.84245 2.06114 
vt 0.96745 -0.0638571 
vt 0.84245 -0.0638571 
vt 0.96745 2.06114 
vt 0.84245 2.06114 
vt 0.96745 1.93614 
vt 0.84245 1.93614 
vt 2.96745 2.06114 
vt 0.84245 2.06114 
vt 2.96745 1.93614 
vt 0.84245 1.93614 
vt 0.96745 2.06114 
vt 0.84245 2.06114 
vt 0.96745 -0.0638571 
vt 0.84245 -0.0638571 
vt 0.96745 2.06114 
vt 0.84245 2.06114 
vt 0.96745 1.93614 
vt 0.84245 1.93614 

usemtl Part1Mtl

f 25/25/25 26/26/26 27/27/27 
f 27/27/27 26/26/26 28/28/28 
f 29/29/29 30/30/30 31/31/31 
f 31/31/31 30/30/30 32/32/32 
f 33/33/33 34/34/34 35/35/35 
f 35/35/35 34/34/34 36/36/36 
f 37/37/37 38/38/38 39/39/39 
f 39/39/39 38/38/38 40/40/40 
f 41/41/41 42/42/42 43/43/43 
f 43/43/43 42/42/42 44/44/44 
f 45/45/45 46/46/46 47/47/47 
f 47/47/47 46/46/46 48/48/48 

g Part3

v -8 0.499994 -9 
v 9 0.499994 -9 
v -8 -0.500006 -9 
v 9 -0.500006 -9 
v 9 0.499994 -8 
v 9 0.499994 -9 
v -8 0.499994 -8 
v -8 0.499994 -9 
v 9 0.499994 -9 
v 9 0.499994 -8 
v 9 -0.500006 -9 
v 9 -0.500006 -8 
v 9 0.499994 -8 
v -8 0.499994 -8 
v 9 -0.500006 -8 
v -8 -0.500006 -8 
v -8 -0.500006 -8 
v -8 -0.500006 -9 
v 9 -0.500006 -8 
v 9 -0.500006 -9 
v -8 0.499994 -8 
v -8 0.499994 -9 
v -8 -0.500006 -8 
v -8 -0.500006 -9 

vn 0 0 -1 
vn 0 0 -1 
vn 0 0 -1 
vn 0 0 -1 
vn 0 1 0 
vn 0 1 0 
vn 0 1 0 
vn 0 1 0 
vn 1 0 0 
vn 1 0 0 
vn 1 0 0 
vn 1 0 0 
vn 0 0 1 
vn 0 0 1 
vn 0 0 1 
vn 0 0 1 
vn 0 -1 0 
vn 0 -1 0 
vn 0 -1 0 
vn 0 -1 0 
vn -1 0 0 
vn -1 0 0 
vn -1 0 0 
vn -1 0 0 

vt 1.7435 0.293269 
vt -0.381496 0.293269 
vt 1.7435 0.168269 
vt -0.381496 0.168269 
vt -0.256496 0.293269 
vt -0.381496 0.293269 
vt -0.256496 -1.83173 
vt -0.381496 -1.83173 
vt -0.256496 0.293269 
vt -0.381496 0.293269 
vt -0.256496 0.168269 
vt -0.381496 0.168269 
vt 1.7435 0.293269 
vt -0.381496 0.293269 
vt 1.7435 0.168269 
vt -0.381496 0.168269 
vt -0.256496 0.293269 
vt -0.381496 0.293269 
vt -0.256496 -1.83173 
vt -0.381496 -1.83173 
vt -0.256496 0.293269 
vt -0.381496 0.293269 
vt -0.256496 0.168269 
vt -0.381496 0.168269 

usemtl Part1Mtl

f 49/49/49 50/50/50 51/51/51 
f 51/51/51 50/50/50 52/52/52 
f 53/53/53 54/54/54 55/55/55 
f 55/55/55 54/54/54 56/56/56 
f 57/57/57 58/58/58 59/59/59 
f 59/59/59 58/58/58 60/60/60 
f 61/61/61 62/62/62 63/63/63 
f 63/63/63 62/62/62 64/64/64 
f 65/65/65 66/66/66 67/67/67 
f 67/67/67 66/66/66 68/68/68 
f 69/69/69 70/70/70 71/71/71 
f 71/71/71 70/70/70 72/72/72 

g Part4

v 9 0.499998 -8 
v 9 0.499998 8 
v 9 -0.500002 -8 
v 9 -0.500002 8 
v 8 0.499998 8 
v 9 0.499998 8 
v 8 0.499998 -8 
v 9 0.499998 -8 
v 9 0.499998 8 
v 8 0.499998 8 
v 9 -0.500002 8 
v 8 -0.500002 8 
v 8 0.499998 8 
v 8 0.499998 -8 
v 8 -0.500002 8 
v 8 -0.500002 -8 
v 8 -0.500002 -8 
v 9 -0.500002 -8 
v 8 -0.500002 8 
v 9 -0.500002 8 
v 8 0.499998 -8 
v 9 0.499998 -8 
v 8 -0.500002 -8 
v 9 -0.500002 -8 

vn 1 0 0 
vn 1 0 0 
vn 1 0 0 
vn 1 0 0 
vn 0 1 0 
vn 0 1 0 
vn 0 1 0 
vn 0 1 0 
vn 0 0 1 
vn 0 0 1 
vn 0 0 1 
vn 0 0 1 
vn -1 0 0 
vn -1 0 0 
vn -1 0 0 
vn -1 0 0 
vn 0 -1 0 
vn 0 -1 0 
vn 0 -1 0 
vn 0 -1 0 
vn 0 0 -1 
vn 0 0 -1 
vn 0 0 -1 
vn 0 0 -1 

vt 1.82884 0.265006 
vt -0.171162 0.265006 
vt 1.82884 0.140006 
vt -0.171162 0.140006 
vt -0.046162 0.265006 
vt -0.171162 0.265006 
vt -0.046162 -1.73499 
vt -0.171162 -1.73499 
vt -0.046162 0.265006 
vt -0.171162 0.265006 
vt -0.046162 0.140006 
vt -0.171162 0.140006 
vt 1.82884 0.265006 
vt -0.171162 0.265006 
vt 1.82884 0.140006 
vt -0.171162 0.140006 
vt -0.046162 0.265006 
vt -0.171162 0.265006 
vt -0.046162 -1.73499 
vt -0.171162 -1.73499 
vt -0.046162 0.265006 
vt -0.171162 0.265006 
vt -0.046162 0.140006 
vt -0.171162 0.140006 

usemtl Part1Mtl

f 73/73/73 74/74/74 75/75/75 
f 75/75/75 74/74/74 76/76/76 
f 77/77/77 78/78/78 79/79/79 
f 79/79/79 78/78/78 80/80/80 
f 81/81/81 82/82/82 83/83/83 
f 83/83/83 82/82/82 84/84/84 
f 85/85/85 86/86/86 87/87/87 
f 87/87/87 86/86/86 88/88/88 
f 89/89/89 90/90/90 91/91/91 
f 91/91/91 90/90/90 92/92/92 
f 93/93/93 94/94/94 95/95/95 
f 95/95/95 94/94/94 96/96/96 

g Part5

v 8 0.499994 -8 
v 8 0.499994 7 
v 8 -0.500006 -8 
v 8 -0.500006 7 
v -7 0.499994 7 
v 8 0.499994 7 
v -7 0.499994 -8 
v 8 0.499994 -8 
v 8 0.499994 7 
v -7 0.499994 7 
v 8 -0.500006 7 
v -7 -0.500006 7 
v -7 0.499994 7 
v -7 0.499994 -8 
v -7 -0.500006 7 
v -7 -0.500006 -8 
v -7 -0.500006 -8 
v 8 -0.500006 -8 
v -7 -0.500006 7 
v 8 -0.500006 7 
v -7 0.499994 -8 
v 8 0.499994 -8 
v -7 -0.500006 -8 
v 8 -0.500006 -8 

vn 1 0 0 
vn 1 0 0 
vn 1 0 0 
vn 1 0 0 
vn 0 1 0 
vn 0 1 0 
vn 0 1 0 
vn 0 1 0 
vn 0 0 1 
vn 0 0 1 
vn 0 0 1 
vn 0 0 1 
vn -1 0 0 
vn -1 0 0 
vn -1 0 0 
vn -1 0 0 
vn 0 -1 0 
vn 0 -1 0 
vn 0 -1 0 
vn 0 -1 0 
vn 0 0 -1 
vn 0 0 -1 
vn 0 0 -1 
vn 0 0 -1 

vt 1.3908 -0.611737 
vt -0.484205 -0.611737 
vt 1.3908 -0.736737 
vt -0.484205 -0.736737 
vt 1.3908 -0.611737 
vt -0.484205 -0.611737 
vt 1.3908 -2.48674 
vt -0.484205 -2.48674 
vt 1.3908 -0.611737 
vt -0.484205 -0.611737 
vt 1.3908 -0.736737 
vt -0.484205 -0.736737 
vt 1.3908 -0.611737 
vt -0.484205 -0.611737 
vt 1.3908 -0.736737 
vt -0.484205 -0.736737 
vt 1.3908 -0.611737 
vt -0.484205 -0.611737 
vt 1.3908 -2.48674 
vt -0.484205 -2.48674 
vt 1.3908 -0.611737 
vt -0.484205 -0.611737 
vt 1.3908 -0.736737 
vt -0.484205 -0.736737 

usemtl Part5Mtl

f 97/97/97 98/98/98 99/99/99 
f 99/99/99 98/98/98 100/100/100 
f 101/101/101 102/102/102 103/103/103 
f 103/103/103 102/102/102 104/104/104 
f 105/105/105 106/106/106 107/107/107 
f 107/107/107 106/106/106 108/108/108 
f 109/109/109 110/110/110 111/111/111 
f 111/111/111 110/110/110 112/112/112 
f 113/113/113 114/114/114 115/115/115 
f 115/115/115 114/114/114 116/116/116 
f 117/117/117 118/118/118 119/119/119 
f 119/119/119 118/118/118 120/120/120 

